<svg width="87" height="31" viewBox="0 0 87 31" fill="none" xmlns="http://www.w3.org/2000/svg">
<path fill-rule="evenodd" clip-rule="evenodd" d="M85.1248 0.405019C84.3958 0.600953 80.3866 1.67369 76.2153 2.78892C72.0441 3.90422 67.5047 5.11848 66.1278 5.48738C64.7509 5.85628 60.9735 6.8668 57.7337 7.73307C40.1571 12.4328 25.1151 16.4574 23.2004 16.9728C20.5981 17.6732 19.5353 17.8284 17.8253 17.758C15.1763 17.6489 13.0172 16.8226 11.4665 15.3245C9.83449 13.7479 9.08823 11.6878 9.19647 9.05779C9.2796 7.03807 9.82978 4.96158 10.9122 2.5826C11.169 2.01807 11.3716 1.54925 11.3624 1.54071C11.3532 1.5321 10.9404 2.01358 10.445 2.61059C4.69301 9.54192 1.28569 15.6383 0.524709 20.3603C0.358964 21.3885 0.374942 23.0668 0.559021 23.9702C0.941171 25.8452 1.93211 27.2658 3.76259 28.5624C7.48026 31.1959 12.0347 31.4801 18.1648 29.4612C20.5359 28.6802 23.4347 27.4978 34.2084 22.9168C35.6866 22.2882 38.3539 21.155 40.1357 20.3983C41.9176 19.6416 43.5909 18.9294 43.8542 18.8155C44.1174 18.7016 46.3705 17.7393 48.8611 16.6771C55.2882 13.936 67.4295 8.74515 81.1487 2.87301C84.1455 1.59027 86.66 0.480047 86.7365 0.4059C86.9099 0.237799 86.844 0.0359757 86.6181 0.0434125C86.5258 0.0464314 85.8537 0.209158 85.1248 0.405019Z" fill="#2D2D2D"/>
</svg>
